<svg version="1.1" xmlns="http://www.w3.org/2000/svg" xmlns:xlink="http://www.w3.org/1999/xlink" x="0px" y="0px" viewBox="0 0 511.999 511.999" style="enable-background:new 0 0 511.999 511.999;" xml:space="preserve">
                              <g>
                                <g>
                                  <path d="M435.099,29.815h-71.361V0H148.262v29.814H76.901L40.464,181.549H0.008v103.359h30.969l34.508,227.091h381.029&#10;                                    l34.509-227.091h30.968V181.55h-40.456L435.099,29.815z M178.261,29.999h155.477v29.629H178.261V29.999z M100.549,59.813h47.714&#10;                                    v29.814h215.475V59.813h47.714l29.233,121.736H71.316L100.549,59.813z M420.73,482.001H91.27L61.32,284.909h389.36L420.73,482.001&#10;                                    z M481.993,254.91H30.007v-43.361h451.986V254.91z"/>
                                </g>
                              </g>
                              <g>
                                <g>
                                  <rect x="241.002" y="326.38" width="29.999" height="114.156"/>
                                </g>
                              </g>
                              <g>
                                <g>
                                  <rect x="143.436" y="326.38" width="29.999" height="114.156"/>
                                </g>
                              </g>
                              <g>
                                <g>
                                  <rect x="338.559" y="326.38" width="29.999" height="114.156"/>
                                </g>
                              </g>
                        </svg>