<svg version="1.1" xmlns="http://www.w3.org/2000/svg" xmlns:xlink="http://www.w3.org/1999/xlink" x="0px" y="0px" viewBox="0 0 512 512" style="enable-background:new 0 0 512 512;" xml:space="preserve"><path style="fill:#FF4F19;" d="M256,512l-5.445-2.117c-1.937-0.752-47.974-18.78-94.746-48.335 c-65.799-41.577-99.162-84.291-99.162-126.957V90.16h15.027c41.428,0,75.133-33.705,75.133-75.133V0h218.386v15.027 c0,41.428,33.705,75.133,75.133,75.133h15.027v244.433c0,42.665-33.363,85.38-99.162,126.956 c-46.772,29.554-92.808,47.582-94.746,48.335L256,512z"/><path style="fill:#FF3200;" d="M440.326,90.16c-41.428,0-75.133-33.705-75.133-75.133V0H256v512l5.445-2.117 c1.937-0.752,47.974-18.78,94.746-48.335c65.799-41.577,99.162-84.291,99.162-126.956V90.16H440.326z"/><path style="fill:#FFDB2D;" d="M256,449.234l-6.15-2.758c-1.408-0.632-34.901-15.745-68.908-38.831 c-48.575-32.974-73.205-65.276-73.205-96.008V139.865h15.027c25.778,0,46.75-20.95,46.75-46.701V78.138h172.972v15.027 c0,25.751,20.972,46.701,46.75,46.701h15.027v171.773c0,30.732-24.63,63.034-73.205,96.008 c-34.007,23.086-67.498,38.199-68.908,38.831L256,449.234z M249.85,419.055L249.85,419.055L249.85,419.055z"/><path style="fill:#FF9A00;" d="M389.236,139.865c-25.778,0-46.75-20.95-46.75-46.701V78.138H256v371.096l6.15-2.758 c1.409-0.632,34.901-15.745,68.908-38.831c48.575-32.974,73.204-65.276,73.204-96.008V139.865H389.236z"/><path style="fill:#B38A65;" d="M200.902,420.429c26.086,15.759,47.819,25.573,48.948,26.079l6.15,2.759l6.15-2.759 c1.129-0.507,22.861-10.32,48.948-26.079V278.966H200.902V420.429z"/><path style="fill:#A17852;" d="M256,278.999v170.236l6.15-2.758c1.129-0.506,22.861-10.316,48.948-26.069V278.999H256z"/><path style="fill:#9A4C00;" d="M304.238,309.052h-96.477l-49.811-76.847l49.811-76.846h31.058v54.477l17.179,14.183l17.179-14.183 v-54.477h31.06l49.811,76.846L304.238,309.052z"/><polygon style="fill:#703700;" points="354.048,232.205 304.238,155.359 273.179,155.359 273.179,209.836 256,224.019 256,309.052 304.238,309.052 "/><g/></svg>